<?xml version="1.0" standalone="no"?>
<!DOCTYPE svg PUBLIC "-//W3C//DTD SVG 20010904//EN"
 "http://www.w3.org/TR/2001/REC-SVG-20010904/DTD/svg10.dtd">
<svg version="1.0" xmlns="http://www.w3.org/2000/svg"
 width="18pt" height="18pt" viewBox="0 0 222.000000 227.000000"
 preserveAspectRatio="xMidYMid meet">

<g transform="translate(0.000000,227.000000) scale(0.100000,-0.100000)"
fill="#145aa0" stroke="none">
<path d="M380 2253 c-18 -7 -147 -116 -242 -205 -55 -51 -70 -72 -80 -109 -10
-41 -9 -50 11 -90 12 -24 43 -68 70 -97 l49 -53 45 63 c90 126 221 246 344
315 l66 36 -75 74 c-73 71 -77 73 -124 72 -27 0 -56 -3 -64 -6z"/>
<path d="M1652 2187 l-75 -74 67 -37 c123 -69 256 -191 351 -324 l38 -53 48
53 c27 29 58 73 70 97 20 40 21 49 11 90 -13 50 -56 96 -217 231 -99 83 -112
90 -171 90 -44 0 -50 -3 -122 -73z"/>
<path d="M1005 2089 c-219 -28 -428 -130 -581 -284 -163 -164 -259 -369 -285
-606 -25 -233 49 -492 196 -687 30 -40 55 -78 55 -83 0 -5 -20 -45 -45 -88
-51 -87 -94 -200 -95 -247 0 -43 34 -84 69 -84 60 0 152 47 290 150 l80 59 55
-24 c214 -94 494 -99 727 -11 l86 32 94 -68 c115 -83 220 -138 265 -138 106 0
97 130 -23 343 l-44 78 61 80 c71 95 129 210 166 334 26 83 28 103 28 260 0
199 -15 270 -90 424 -57 121 -113 198 -205 287 -126 120 -263 200 -419 243
-108 30 -278 43 -385 30z m333 -189 c284 -79 509 -310 582 -595 27 -105 27
-290 1 -390 -40 -151 -96 -255 -196 -363 -200 -216 -505 -310 -787 -243 -475
113 -749 604 -593 1062 95 277 339 489 630 545 95 18 268 11 363 -16z"/>
<path d="M1103 1743 c-10 -3 -13 -67 -13 -271 0 -255 -1 -268 -20 -279 -30
-19 -52 -70 -45 -103 8 -38 59 -80 95 -80 15 0 44 7 63 15 28 12 81 15 237 15
207 0 231 4 251 41 13 25 -4 73 -29 85 -10 4 -114 9 -232 12 -118 2 -223 8
-232 13 -16 9 -18 33 -18 274 0 251 -1 265 -19 275 -11 5 -21 10 -23 9 -2 0
-9 -3 -15 -6z"/>
</g>
</svg>
