<?xml version="1.0" standalone="no"?>
<!DOCTYPE svg PUBLIC "-//W3C//DTD SVG 20010904//EN"
 "http://www.w3.org/TR/2001/REC-SVG-20010904/DTD/svg10.dtd">
<svg version="1.0" xmlns="http://www.w3.org/2000/svg"
 width="30pt" height="30pt" viewBox="0 0 225.000000 225.000000"
 preserveAspectRatio="xMidYMid meet">

<g transform="translate(0.000000,225.000000) scale(0.100000,-0.100000)"
fill="#145aa0" stroke="none">
<path d="M737 1685 l-277 -185 2 -313 3 -312 241 -3 240 -2 22 -45 c12 -25 22
-47 22 -50 0 -2 -21 -5 -47 -7 l-48 -3 0 -55 c1 -71 27 -125 78 -158 40 -27
41 -27 260 -30 247 -3 284 3 355 63 74 64 86 105 92 305 l5 175 43 15 c23 8
42 17 42 20 0 3 -21 14 -47 23 -40 14 -51 24 -65 57 -11 28 -30 48 -62 67
l-45 28 -1 115 0 115 -242 165 c-132 91 -253 173 -267 182 l-27 17 -277 -184z
m537 -32 l209 -143 -474 0 -474 0 240 160 c238 158 239 159 265 143 14 -9 119
-81 234 -160z m203 -180 c-4 -4 -85 -62 -180 -129 l-172 -123 -111 114 c-61
63 -116 115 -122 115 -6 0 -14 -17 -17 -37 -4 -21 -9 -50 -11 -64 -3 -14 1
-45 9 -67 10 -28 11 -39 3 -35 -20 12 -321 216 -330 225 -6 4 203 8 464 8 260
0 470 -3 467 -7z m-583 -315 c4 -24 13 -63 20 -88 8 -25 17 -73 20 -107 l6
-63 -206 0 c-168 0 -204 2 -196 13 6 7 43 40 81 72 66 56 86 85 60 85 -7 0
-37 -21 -67 -47 -30 -27 -67 -58 -83 -71 l-29 -23 0 265 0 266 194 -129 193
-129 7 -44z m626 214 l0 -89 -54 -12 c-93 -21 -143 -90 -146 -201 l-1 -55 -85
90 c-67 71 -82 92 -72 101 12 12 350 253 356 254 1 0 2 -40 2 -88z m-322 -284
c73 -76 139 -138 147 -138 12 0 15 18 15 88 0 63 5 96 18 121 50 99 177 105
239 12 22 -33 23 -42 23 -235 0 -225 -7 -252 -71 -313 -62 -58 -86 -63 -321
-63 -193 0 -216 2 -245 20 -41 25 -63 59 -70 110 l-6 40 62 0 c70 0 75 8 38
68 -29 47 -44 86 -53 137 -7 46 -16 53 101 -77 74 -84 105 -105 105 -74 0 7
-46 64 -101 126 -56 63 -110 132 -120 155 -18 41 -36 125 -26 125 3 0 78 -79
168 -175 89 -97 167 -174 172 -172 25 8 12 29 -70 118 -312 336 -313 338 -298
396 6 27 7 27 83 -52 42 -44 137 -142 210 -217z"/>
<path d="M1480 1154 c-11 -12 -10 -18 3 -32 16 -15 18 -15 34 0 13 14 14 20 3
32 -7 9 -16 16 -20 16 -4 0 -13 -7 -20 -16z"/>
</g>
</svg>
