<?xml version="1.0" standalone="no"?>
<!DOCTYPE svg PUBLIC "-//W3C//DTD SVG 20010904//EN"
 "http://www.w3.org/TR/2001/REC-SVG-20010904/DTD/svg10.dtd">
<svg version="1.0" xmlns="http://www.w3.org/2000/svg"
 width="150pt" height="150pt" viewBox="0 0 612.000000 612.000000"
 preserveAspectRatio="xMidYMid meet">

<g transform="translate(0.000000,612.000000) scale(0.100000,-0.100000)"
fill="#145aa0" stroke="none">
<path d="M2945 4624 c-16 -2 -66 -9 -110 -15 -229 -30 -448 -115 -660 -257
-132 -88 -318 -274 -404 -402 -303 -454 -360 -990 -159 -1486 160 -394 495
-720 893 -869 497 -186 1067 -106 1491 208 90 67 267 245 326 327 90 126 196
332 227 440 61 215 76 318 75 505 -4 433 -175 826 -487 1121 -229 217 -508
356 -817 408 -96 16 -320 28 -375 20z m378 -224 c125 -24 224 -59 357 -125
493 -244 793 -787 741 -1340 -24 -251 -105 -468 -250 -668 -34 -48 -66 -89
-72 -92 -5 -4 -176 161 -379 365 l-370 371 0 135 c0 155 -5 173 -76 259 l-48
60 -23 235 c-13 129 -24 306 -25 392 l-3 157 -25 5 c-14 3 -65 4 -115 2 l-90
-3 2 -79 c2 -73 -10 -254 -38 -574 -6 -69 -13 -127 -14 -128 -7 -8 -726 718
-720 728 16 26 200 146 290 189 154 75 306 116 500 135 79 8 252 -4 358 -24z
m-920 -823 l368 -372 3 -575 c3 -586 6 -630 42 -644 43 -16 201 -27 314 -21
132 8 182 21 199 53 11 20 20 220 20 465 l1 148 301 -301 c165 -165 297 -304
294 -310 -3 -5 -44 -37 -90 -70 -158 -114 -369 -203 -575 -241 -114 -21 -349
-17 -478 9 -569 114 -992 552 -1094 1132 -15 91 -15 318 1 420 31 200 128 433
246 593 36 48 68 87 72 86 5 0 174 -167 376 -372z"/>
</g>
</svg>
