<?xml version="1.0" standalone="no"?>
<!DOCTYPE svg PUBLIC "-//W3C//DTD SVG 20010904//EN"
 "http://www.w3.org/TR/2001/REC-SVG-20010904/DTD/svg10.dtd">
<svg version="1.0" xmlns="http://www.w3.org/2000/svg"
 width="29pt" height="29pt" viewBox="0 0 840.000000 859.000000"
 preserveAspectRatio="xMidYMid meet">

<g transform="translate(0.000000,859.000000) scale(0.100000,-0.100000)"
fill="#145aa0" stroke="none">
<path d="M3975 8463 c-325 -25 -477 -47 -705 -99 -1336 -308 -2440 -1255
-2943 -2524 -273 -688 -357 -1409 -251 -2150 179 -1259 938 -2372 2054 -3015
504 -291 1052 -466 1660 -531 189 -20 587 -23 780 -5 981 89 1894 515 2582
1204 685 686 1107 1577 1204 2542 20 195 23 587 5 775 -65 704 -284 1337 -667
1922 -673 1030 -1768 1710 -2989 1857 -212 26 -564 38 -730 24z m-537 -1588
c130 -30 235 -102 288 -197 25 -46 29 -63 29 -133 0 -66 -5 -90 -27 -138 -23
-48 -25 -62 -16 -83 19 -41 51 -41 106 0 125 91 163 232 102 374 -20 47 -21
56 -9 79 63 118 354 139 578 42 l51 -21 -19 -32 c-64 -103 -80 -224 -42 -310
23 -54 119 -153 157 -162 27 -7 64 18 64 44 0 8 -12 47 -26 86 -34 94 -31 191
9 259 77 131 248 210 452 210 116 0 179 -20 259 -80 48 -37 136 -135 136 -152
0 -4 -48 -10 -107 -13 -223 -11 -456 -127 -525 -262 -19 -38 -20 -40 -2 -53
37 -27 122 -16 274 38 132 46 155 52 255 56 150 7 249 -17 410 -97 285 -142
436 -316 422 -485 -3 -33 -17 -97 -31 -142 l-27 -83 -93 0 c-109 0 -209 -16
-439 -71 -337 -79 -489 -98 -562 -70 -146 58 -187 190 -99 318 102 151 266
197 672 191 212 -3 224 -2 238 16 22 31 18 83 -10 111 -46 46 -229 85 -403 85
-324 0 -612 -129 -703 -313 -45 -93 -56 -172 -36 -277 37 -199 143 -309 333
-346 155 -29 308 -13 648 71 121 30 252 57 290 61 258 23 470 -118 531 -356
39 -155 -51 -313 -230 -400 -132 -65 -168 -70 -492 -74 -332 -5 -406 -16 -548
-85 -241 -118 -348 -302 -302 -519 29 -141 100 -256 207 -336 138 -104 300
-96 429 21 42 37 53 80 28 101 -7 5 -53 12 -103 14 -144 7 -231 58 -281 163
-68 142 14 311 183 380 43 17 83 20 372 25 l324 5 38 -44 c45 -51 59 -92 59
-177 0 -83 -36 -153 -110 -213 -30 -24 -61 -55 -68 -68 -29 -53 23 -131 78
-118 41 10 117 64 160 112 l39 45 43 -30 c153 -105 240 -257 241 -422 1 -75
-2 -93 -29 -151 -43 -91 -115 -159 -228 -215 -227 -112 -403 -95 -571 56 -133
119 -172 132 -194 68 -53 -152 105 -332 344 -393 128 -32 354 -7 473 54 23 11
43 18 45 13 11 -18 18 -106 11 -147 -8 -56 -36 -99 -92 -142 -82 -62 -250 -95
-577 -113 -520 -28 -586 -36 -711 -96 -53 -25 -87 -51 -136 -103 -110 -116
-124 -211 -42 -279 44 -37 95 -52 172 -52 84 0 112 12 112 48 0 21 -11 37 -45
65 -26 22 -45 47 -45 58 0 49 97 92 282 125 82 14 539 47 547 38 5 -5 -70
-102 -146 -187 -138 -154 -296 -273 -438 -329 -76 -31 -86 -33 -215 -32 -118
0 -142 3 -194 23 -237 94 -396 297 -396 507 0 104 60 274 138 386 47 68 153
163 217 195 95 47 144 56 335 58 116 1 182 5 197 13 32 17 45 46 34 74 -14 37
-91 107 -151 136 -48 23 -67 27 -155 27 -71 0 -116 -6 -155 -19 -82 -27 -224
-104 -288 -156 l-57 -45 -56 15 c-74 20 -97 37 -114 85 -48 135 23 365 149
485 21 19 92 62 159 95 117 58 122 61 125 94 5 45 -16 65 -153 150 -238 149
-297 254 -299 536 -1 107 3 140 19 184 46 124 180 218 372 261 95 22 198 31
470 40 299 10 453 27 549 60 81 28 141 66 159 100 18 35 20 101 3 118 -21 21
-70 14 -99 -14 -48 -46 -106 -54 -511 -69 -208 -8 -392 -17 -410 -20 -33 -6
-86 9 -177 52 -118 54 -228 236 -266 438 -21 109 -16 284 10 357 21 61 76 122
158 178 102 69 111 105 35 140 -60 27 -95 25 -166 -11 -103 -51 -178 -158
-219 -310 -28 -102 -22 -307 11 -433 45 -174 130 -323 237 -419 l61 -54 -60
-21 c-123 -45 -253 -155 -305 -258 -130 -257 -59 -722 145 -939 l57 -62 -45
-44 c-65 -63 -128 -154 -173 -251 -129 -274 -75 -551 125 -648 l41 -20 -43
-88 c-62 -127 -85 -215 -91 -359 -7 -146 5 -215 54 -331 l35 -83 -29 -37 c-16
-20 -50 -48 -74 -62 -61 -35 -162 -34 -240 2 -55 25 -134 97 -145 130 -3 10 6
46 20 81 36 90 49 184 43 301 -6 125 -33 230 -91 352 l-44 93 43 21 c54 26
130 107 156 164 58 132 40 343 -44 511 -33 67 -117 182 -163 225 -24 22 -44
43 -44 46 0 2 17 19 37 37 20 18 58 64 84 104 157 242 192 655 72 874 -50 93
-180 197 -305 244 l-47 17 65 64 c106 105 176 228 225 395 30 105 38 328 15
432 -35 158 -121 282 -229 333 -64 29 -105 30 -158 4 -71 -37 -63 -75 27 -135
88 -59 130 -100 152 -153 105 -243 -6 -676 -205 -802 -70 -45 -178 -83 -211
-75 -16 3 -199 12 -408 20 -408 15 -464 22 -513 69 -38 37 -90 34 -109 -6 -29
-62 17 -134 116 -179 99 -45 356 -79 600 -79 385 0 633 -58 760 -177 61 -57
88 -114 102 -213 17 -121 -11 -324 -57 -414 -31 -59 -118 -137 -247 -220 -202
-131 -204 -155 -21 -241 136 -64 200 -121 257 -230 65 -126 83 -241 53 -343
-17 -57 -29 -66 -115 -92 l-54 -16 -71 54 c-88 67 -229 136 -320 158 -133 31
-257 6 -352 -72 -76 -63 -89 -116 -36 -151 22 -14 56 -17 207 -19 154 -1 191
-5 247 -23 204 -65 373 -274 425 -524 35 -166 -22 -325 -166 -460 -73 -70
-193 -137 -280 -156 -66 -15 -207 -13 -275 4 -140 35 -295 135 -446 285 -74
74 -223 250 -216 256 1 1 106 -4 232 -11 331 -20 512 -56 577 -114 29 -26 31
-31 20 -55 -6 -15 -27 -36 -46 -47 -40 -23 -52 -49 -36 -79 14 -26 45 -33 133
-28 85 4 141 29 175 78 80 118 -65 317 -281 385 -100 32 -193 43 -462 55 -289
13 -435 26 -552 50 -218 44 -305 130 -290 290 7 79 11 84 55 61 133 -68 346
-90 487 -52 149 41 273 131 318 229 29 65 29 155 -1 185 -22 21 -23 21 -55 4
-18 -10 -69 -49 -113 -88 -43 -38 -108 -84 -144 -102 -60 -30 -71 -32 -165
-31 -82 0 -114 5 -180 28 -98 34 -212 103 -261 159 -161 185 -104 477 126 651
l63 47 61 -59 c60 -58 130 -102 161 -102 9 0 27 11 40 25 36 35 35 98 -1 128
-126 105 -157 153 -158 252 -1 75 23 141 68 184 l33 32 299 -1 c313 -1 357 -5
439 -48 63 -31 131 -111 149 -173 21 -70 20 -107 -4 -173 -41 -109 -137 -166
-293 -175 -100 -6 -116 -14 -117 -52 0 -24 93 -106 147 -131 73 -33 180 -31
256 4 72 34 168 124 213 201 84 143 99 320 37 450 -70 146 -249 267 -467 314
-51 11 -151 16 -358 19 -220 2 -301 7 -348 19 -221 57 -380 216 -380 380 0
141 113 311 253 380 146 72 256 70 582 -11 321 -79 477 -97 623 -74 100 17
166 46 229 103 95 88 139 209 131 367 -3 68 -10 96 -32 140 -76 152 -212 242
-455 303 -114 28 -398 31 -505 4 -111 -28 -155 -51 -171 -91 -16 -37 -8 -76
16 -92 7 -4 130 -8 274 -9 294 -1 387 -14 488 -67 136 -73 216 -212 178 -311
-13 -35 -69 -95 -103 -113 -81 -42 -197 -35 -473 27 -99 23 -229 52 -290 66
-68 16 -159 28 -240 32 l-130 6 -28 95 c-52 175 -25 283 102 410 75 74 144
122 279 193 141 74 224 98 367 104 130 5 151 1 368 -76 91 -32 164 -39 211
-21 24 9 24 11 14 42 -21 60 -117 144 -220 193 -122 58 -191 76 -315 82 -79 4
-103 9 -103 20 0 22 141 158 190 184 97 50 220 58 368 24z m-1527 -2445 c30
-16 75 -37 102 -46 26 -8 47 -19 47 -24 0 -4 -15 -39 -32 -76 -28 -59 -33 -82
-36 -160 l-4 -90 -63 -28 c-36 -16 -97 -56 -139 -92 l-75 -64 -25 33 c-69 91
-47 321 45 461 29 42 104 116 119 116 4 0 31 -13 61 -30z m4686 0 c93 -68 152
-197 160 -350 6 -107 -5 -160 -41 -205 l-24 -29 -66 62 c-40 37 -94 75 -135
94 l-69 33 -4 90 c-4 84 -24 147 -75 236 -2 3 20 13 49 22 29 9 76 30 103 46
28 17 52 30 56 30 3 1 23 -12 46 -29z" fill='#145aa0'/>
</g>
</svg>
