<?xml version="1.0" standalone="no"?>
<!DOCTYPE svg PUBLIC "-//W3C//DTD SVG 20010904//EN"
 "http://www.w3.org/TR/2001/REC-SVG-20010904/DTD/svg10.dtd">
<svg version="1.0" xmlns="http://www.w3.org/2000/svg"
 width="27pt" height="27pt" viewBox="0 0 225.000000 225.000000"
 preserveAspectRatio="xMidYMid meet">

<g transform="translate(0.000000,225.000000) scale(0.100000,-0.100000)"
fill="#145aa0" stroke="none">
<path d="M948 2235 c-245 -40 -457 -153 -634 -337 -124 -130 -199 -253 -254
-418 -140 -415 -26 -865 296 -1170 433 -411 1105 -411 1538 0 359 341 456 862
241 1306 -111 230 -321 432 -555 536 -192 84 -432 116 -632 83z m292 -85 c235
-29 432 -123 602 -288 419 -405 419 -1069 0 -1474 -92 -89 -175 -147 -286
-199 -272 -127 -590 -127 -862 0 -111 52 -194 110 -286 199 -419 405 -419
1069 0 1474 229 221 528 325 832 288z" fill="#145aa0"/>
<path d="M975 1626 c-203 -40 -400 -156 -526 -312 -68 -83 -119 -165 -119
-189 0 -50 144 -234 249 -317 85 -68 245 -148 346 -174 97 -25 303 -25 400 0
103 26 262 107 348 175 106 86 247 266 247 316 0 50 -144 234 -249 317 -83 67
-245 148 -341 173 -90 22 -268 28 -355 11z m327 -101 c146 -38 272 -109 376
-213 53 -53 142 -170 142 -187 0 -17 -89 -134 -142 -187 -170 -170 -418 -258
-642 -229 -172 23 -336 104 -459 225 -55 54 -147 173 -147 191 0 3 19 34 42
68 121 179 333 314 543 346 74 12 215 5 287 -14z" fill="#145aa0"/>
<path d="M1072 1353 l-22 -4 20 -29 c67 -95 -45 -207 -140 -140 l-29 20 -7
-46 c-19 -131 97 -264 231 -264 121 0 235 114 235 235 0 145 -141 256 -288
228z" fill="#145aa0"/>
</g>
</svg>
