<?xml version="1.0" standalone="no"?>
<!DOCTYPE svg PUBLIC "-//W3C//DTD SVG 20010904//EN"
 "http://www.w3.org/TR/2001/REC-SVG-20010904/DTD/svg10.dtd">
<svg version="1.0" xmlns="http://www.w3.org/2000/svg"
 width="15pt" height="15pt" viewBox="0 0 840.000000 880.000000"
 preserveAspectRatio="xMidYMid meet">

<g transform="translate(0.000000,880.000000) scale(0.100000,-0.100000)"
fill="#93c9ff" stroke="none">
<path d="M3970 8394 c-19 -2 -91 -9 -160 -15 -459 -39 -961 -184 -1396 -402
-781 -392 -1411 -1026 -1802 -1812 -354 -713 -485 -1536 -371 -2330 65 -452
195 -859 407 -1270 380 -735 982 -1337 1717 -1717 459 -236 916 -373 1445
-430 154 -17 622 -16 780 0 937 100 1771 495 2431 1152 968 964 1373 2330
1088 3675 -114 542 -364 1089 -703 1541 -136 182 -230 290 -395 454 -642 637
-1473 1035 -2371 1136 -127 14 -593 27 -670 18z m581 -279 c750 -72 1424 -350
2019 -833 145 -119 416 -392 537 -543 446 -558 715 -1200 803 -1919 20 -164
24 -580 6 -760 -73 -760 -350 -1435 -835 -2030 -109 -135 -376 -402 -511 -511
-596 -486 -1269 -762 -2030 -835 -180 -18 -596 -14 -760 6 -841 103 -1580 454
-2179 1035 -730 708 -1132 1660 -1131 2679 1 858 281 1654 818 2328 136 170
410 444 580 580 573 457 1246 731 1967 803 181 18 530 18 716 0z"/>
<path d="M4260 6638 c-399 -24 -655 -211 -750 -549 -41 -148 -51 -251 -57
-601 l-6 -338 -199 0 c-225 0 -255 -7 -282 -65 -23 -47 -24 -817 -2 -870 25
-59 49 -65 280 -65 l206 0 2 -965 3 -965 33 -32 32 -33 441 0 441 0 24 28 24
28 0 970 0 969 329 0 c190 0 341 4 355 10 14 5 35 24 46 42 19 32 20 51 20
446 0 355 -2 417 -16 443 -28 56 -50 59 -409 59 l-326 0 3 218 c2 169 6 224
18 247 l15 30 325 5 c179 3 332 9 341 13 8 4 23 21 32 36 15 26 17 72 17 441
0 345 -2 417 -15 444 -29 61 -23 60 -435 61 -206 0 -427 -3 -490 -7z m680
-486 l0 -238 -227 1 c-190 0 -237 -3 -285 -18 -86 -26 -137 -70 -178 -152
l-35 -69 -3 -346 c-3 -333 -2 -346 18 -378 37 -59 55 -62 405 -62 l315 0 0
-240 0 -240 -315 0 c-350 0 -369 -3 -405 -62 -20 -32 -20 -48 -20 -985 l0
-953 -255 0 -255 0 0 953 c0 741 -3 957 -13 977 -7 13 -28 35 -46 47 -33 22
-42 23 -237 23 l-204 0 0 240 0 240 208 0 c189 0 210 2 240 20 18 11 37 32 42
46 6 14 10 163 10 348 0 482 18 645 85 793 78 169 232 261 475 283 47 4 219 8
383 9 l297 1 0 -238z"/>
</g>
</svg>
