<?xml version="1.0" standalone="no"?>
<!DOCTYPE svg PUBLIC "-//W3C//DTD SVG 20010904//EN"
 "http://www.w3.org/TR/2001/REC-SVG-20010904/DTD/svg10.dtd">
<svg version="1.0" xmlns="http://www.w3.org/2000/svg"
 width="32pt" height="32pt" viewBox="0 0 238.000000 250.000000"
 preserveAspectRatio="xMidYMid meet">

<g transform="translate(0.000000,250.000000) scale(0.100000,-0.100000)"
fill="#145aa0" stroke="none">
<path d="M954 1898 c-23 -11 -44 -48 -44 -77 0 -10 14 -45 30 -78 29 -57 88
-122 170 -185 l35 -27 -232 -1 -233 0 0 -105 0 -105 29 0 29 0 -2 -360 -1
-360 450 0 450 0 0 357 0 358 28 3 27 3 0 104 0 105 -215 2 -215 3 72 60 c115
96 175 201 149 263 -21 50 -92 67 -151 37 -38 -19 -97 -97 -112 -147 -13 -45
-23 -48 -32 -10 -11 43 -73 131 -109 152 -34 21 -89 25 -123 8z m138 -69 c20
-22 46 -64 57 -93 21 -56 39 -176 26 -176 -15 0 -103 71 -149 120 -76 81 -101
170 -53 190 39 17 80 3 119 -41z m332 41 c52 -19 25 -113 -57 -198 -43 -44
-129 -112 -142 -112 -12 0 2 109 20 160 22 63 60 117 98 140 37 23 46 24 81
10z m-314 -445 l0 -65 -197 2 -198 3 -3 49 c-5 80 -16 76 203 76 l195 0 0 -65z
m150 0 l0 -65 -55 0 -55 0 0 65 0 65 55 0 55 0 0 -65z m390 0 l0 -65 -175 0
-175 0 0 65 0 65 175 0 175 0 0 -65z m-542 -447 l-3 -343 -165 0 -165 0 -3
343 -2 342 170 0 170 0 -2 -342z m152 2 l0 -340 -55 0 -55 0 0 340 0 340 55 0
55 0 0 -340z m340 1 l0 -338 -46 -7 c-26 -3 -93 -6 -150 -6 l-104 0 0 345 0
345 150 0 150 0 0 -339z"/>
</g>
</svg>
