<?xml version="1.0" standalone="no"?>
<!DOCTYPE svg PUBLIC "-//W3C//DTD SVG 20010904//EN"
 "http://www.w3.org/TR/2001/REC-SVG-20010904/DTD/svg10.dtd">
<svg version="1.0" xmlns="http://www.w3.org/2000/svg"
 width="30pt" height="30pt" viewBox="0 0 278.000000 280.000000"
 preserveAspectRatio="xMidYMid meet">

<g transform="translate(0.000000,280.000000) scale(0.100000,-0.100000)"
fill="#145aa0" stroke="none">
<path d="M1175 2684 c-399 -70 -751 -330 -931 -686 -56 -112 -85 -190 -115
-308 -21 -83 -24 -119 -24 -285 0 -203 9 -265 62 -425 130 -390 466 -714 858
-828 143 -42 186 -47 375 -46 173 1 193 3 300 31 238 63 433 174 600 342 185
186 301 402 357 661 14 65 18 128 18 270 -1 169 -3 195 -28 293 -87 338 -268
596 -547 783 -220 146 -452 215 -719 213 -69 0 -162 -7 -206 -15z m518 -107
c281 -75 543 -259 699 -491 150 -224 208 -416 208 -686 0 -264 -55 -449 -197
-670 -115 -177 -325 -354 -524 -442 -152 -67 -259 -90 -454 -95 -201 -6 -314
12 -481 78 -281 110 -534 349 -659 623 -77 168 -105 305 -105 507 0 269 59
461 208 685 133 198 330 355 556 443 169 66 261 81 471 77 155 -3 194 -7 278
-29z" fill="#145aa0"/>
<path d="M872 2101 c-74 -28 -111 -53 -169 -114 -60 -63 -87 -114 -109 -200
-53 -205 67 -440 385 -757 137 -136 396 -353 415 -347 5 2 60 43 123 93 77 61
113 95 113 110 0 19 -65 222 -74 232 -3 2 -25 -36 -49 -84 -54 -107 -75 -129
-128 -129 -55 0 -72 23 -116 150 l-38 110 -93 5 c-93 5 -94 6 -128 43 -30 33
-34 43 -34 92 0 31 7 69 15 84 17 33 70 61 115 61 26 0 46 13 102 65 39 36 81
68 95 71 36 10 82 -15 102 -55 l19 -35 46 91 c53 107 77 133 122 133 61 0 80
-29 148 -228 67 -197 65 -195 105 -115 33 67 49 73 182 73 l117 0 27 73 c64
173 34 335 -87 464 -93 98 -195 138 -332 131 -131 -7 -244 -70 -317 -177 -19
-28 -36 -51 -39 -51 -3 0 -13 13 -22 28 -33 56 -123 135 -188 166 -56 26 -78
31 -160 33 -75 3 -106 -1 -148 -16z"/>
<path d="M1495 1435 c-49 -96 -93 -175 -96 -175 -3 0 -24 52 -45 115 l-39 115
-65 -65 c-63 -63 -67 -65 -116 -65 -56 0 -74 -12 -74 -50 0 -40 18 -50 88 -50
55 0 69 4 95 26 l31 26 50 -151 c28 -83 53 -151 56 -151 4 0 47 79 96 175 49
96 92 175 96 175 3 0 48 -125 99 -277 l93 -278 109 226 110 226 94 5 c110 6
133 19 117 65 l-9 28 -125 3 -125 3 -72 -146 c-40 -80 -76 -145 -81 -145 -4 0
-48 121 -97 270 -49 149 -92 270 -95 270 -3 0 -45 -79 -95 -175z" fill="#145aa0"/>
</g>
</svg>
