<?xml version="1.0" standalone="no"?>
<!DOCTYPE svg PUBLIC "-//W3C//DTD SVG 20010904//EN"
 "http://www.w3.org/TR/2001/REC-SVG-20010904/DTD/svg10.dtd">
<svg version="1.0" xmlns="http://www.w3.org/2000/svg"
 width="32pt" height="32pt" viewBox="0 0 1299.000000 1300.000000"
 preserveAspectRatio="xMidYMid meet">

<g transform="translate(0.000000,1300.000000) scale(0.100000,-0.100000)"
fill="#145aa0" stroke="none">
<path d="M6240 11693 c-134 -6 -409 -34 -537 -55 l-132 -21 -3 -291 -3 -291
55 -60 54 -60 -51 49 -52 50 -3 -760 -3 -759 -24 -65 c-70 -191 -155 -317
-576 -850 -145 -184 -166 -212 -228 -298 -187 -259 -306 -494 -352 -692 -37
-158 -17 -368 46 -493 116 -230 383 -455 608 -512 35 -9 127 -20 205 -25 186
-12 284 -38 576 -155 219 -87 390 -145 429 -145 9 0 23 6 31 13 12 10 12 9 2
-4 -11 -15 -4 -18 63 -28 94 -14 209 -14 295 -1 100 16 112 19 104 33 -5 9 -4
9 5 1 8 -8 25 -9 50 -3 53 12 220 70 326 114 316 129 433 162 625 174 158 10
237 29 340 79 153 75 347 252 431 392 209 352 109 748 -337 1346 -109 146
-179 236 -259 334 -235 289 -383 507 -448 659 -59 137 -58 109 -51 1221 5 721
4 1019 -4 1024 -13 8 -164 31 -332 51 -246 29 -594 40 -850 28z m164 -285 c5
-62 23 -430 48 -992 12 -267 13 -281 35 -307 21 -25 22 -27 5 -40 -15 -12 -16
-12 -4 2 10 13 9 19 -4 30 -15 13 -16 0 -9 -171 4 -102 10 -232 14 -290 l6
-105 9 144 c4 79 10 207 13 285 2 77 9 218 13 311 5 94 16 321 25 505 9 184
19 413 24 508 5 95 11 175 14 179 9 8 356 -15 491 -33 61 -8 112 -14 114 -14
3 0 3 -431 1 -957 -3 -795 -2 -969 10 -1023 14 -63 18 -69 120 -175 l106 -110
-98 95 c-111 108 -113 103 -26 -66 81 -158 250 -392 544 -754 258 -318 432
-598 499 -801 62 -188 58 -299 -13 -444 -47 -95 -108 -167 -209 -247 -132
-104 -244 -148 -382 -148 -158 0 -357 -48 -581 -140 -334 -138 -468 -178 -629
-187 -174 -9 -349 33 -628 153 -135 58 -344 128 -442 149 -41 9 -139 20 -217
25 -154 10 -208 25 -320 91 -90 53 -232 201 -276 286 -73 140 -81 257 -31 430
65 225 223 474 594 938 175 218 326 421 389 522 47 77 131 236 131 249 0 4
-10 -1 -22 -12 -13 -10 -9 -3 8 16 20 22 39 60 50 100 17 60 19 120 21 719 l3
654 -22 26 c-13 14 -16 20 -8 14 8 -7 18 -13 22 -13 4 0 8 137 8 305 l0 304
33 5 c140 22 356 41 504 45 l61 1 6 -62z m1006 -421 c0 -2 -10 -12 -22 -23
l-23 -19 19 23 c18 21 26 27 26 19z m-1690 -112 c19 -19 32 -35 29 -35 -3 0
-20 16 -39 35 -19 19 -32 35 -29 35 3 0 20 -16 39 -35z m1610 32 c0 -2 -10
-12 -22 -23 l-23 -19 19 23 c18 21 26 27 26 19z m-80 -80 c0 -2 -10 -12 -22
-23 l-23 -19 19 23 c18 21 26 27 26 19z m-1590 -1590 c0 -2 -12 -14 -27 -28
l-28 -24 24 28 c23 25 31 32 31 24z m-90 -90 c0 -2 -10 -12 -22 -23 l-23 -19
19 23 c18 21 26 27 26 19z m-80 -80 c0 -2 -10 -12 -22 -23 l-23 -19 19 23 c18
21 26 27 26 19z m950 -2641 c0 -2 -8 -10 -17 -17 -16 -13 -17 -12 -4 4 13 16
21 21 21 13z m175 -16 c10 -11 16 -20 13 -20 -3 0 -13 9 -23 20 -10 11 -16 20
-13 20 3 0 13 -9 23 -20z m-255 -64 c0 -2 -8 -10 -17 -17 -16 -13 -17 -12 -4
4 13 16 21 21 21 13z m335 -16 c10 -11 16 -20 13 -20 -3 0 -13 9 -23 20 -10
11 -16 20 -13 20 3 0 13 -9 23 -20z" fill="#145aa0"/>
<path d="M5290 11559 c-19 -5 -93 -25 -165 -44 -544 -143 -1126 -416 -1598
-749 -224 -157 -356 -263 -488 -392 -47 -46 -88 -82 -91 -79 -2 2 -31 -22 -63
-55 l-60 -60 80 -80 80 -80 60 56 c324 301 589 503 926 705 373 223 836 416
1272 529 l87 23 0 119 c0 65 -1 118 -2 117 -2 0 -19 -5 -38 -10z m-2350 -1282
c0 -2 -12 -14 -27 -28 l-28 -24 24 28 c23 25 31 32 31 24z m-60 -61 c0 -2 -8
-10 -17 -17 -16 -13 -17 -12 -4 4 13 16 21 21 21 13z" fill="#145aa0"/>
<path d="M7660 11451 l0 -117 198 -56 c479 -135 919 -337 1362 -623 244 -158
530 -389 748 -603 l54 -53 27 23 26 23 -23 -26 -24 -27 34 -34 c131 -136 276
-305 395 -463 497 -660 812 -1402 942 -2215 42 -265 54 -432 55 -770 1 -331
-6 -440 -45 -720 -125 -899 -518 -1779 -1107 -2480 -666 -792 -1549 -1354
-2539 -1616 l-103 -27 0 -118 c0 -90 3 -117 13 -114 6 2 52 14 101 25 165 39
434 126 626 202 41 17 98 39 125 50 28 11 136 61 240 112 1253 610 2211 1698
2651 3011 136 405 211 761 255 1210 17 168 17 737 1 910 -42 428 -127 836
-255 1210 -72 209 -74 216 -146 383 -236 551 -586 1085 -994 1517 l-85 90 -59
-55 -58 -55 55 58 55 59 -110 105 c-133 127 -318 284 -480 405 -308 231 -666
439 -1030 598 -170 74 -237 98 -525 195 -53 18 -158 47 -287 79 l-93 23 0
-116z m2435 -8541 c44 -44 77 -80 75 -80 -3 0 -41 36 -85 80 -44 44 -77 80
-75 80 3 0 41 -36 85 -80z" fill="#145aa0"/>
<path d="M2757 10112 c-31 -32 -57 -62 -57 -66 0 -5 -17 -26 -38 -46 -113
-111 -265 -296 -403 -490 -451 -633 -759 -1379 -889 -2150 -117 -698 -82
-1499 94 -2160 8 -30 24 -89 35 -130 11 -41 49 -161 85 -267 235 -688 621
-1325 1133 -1871 114 -122 116 -123 137 -105 21 18 21 18 3 -3 -18 -21 -17
-23 95 -127 495 -461 1097 -835 1708 -1062 181 -67 440 -148 575 -180 39 -9
76 -18 83 -20 9 -3 12 24 12 114 l0 118 -87 23 c-788 208 -1522 608 -2108
1151 -146 135 -131 125 -157 103 l-23 -19 18 22 c23 27 23 27 -84 138 -689
713 -1169 1706 -1308 2706 -39 283 -45 372 -45 704 0 365 13 536 65 845 160
952 626 1887 1278 2563 l105 108 -79 79 c-44 44 -82 80 -85 80 -3 0 -31 -26
-63 -58z m43 25 c0 -2 -17 -19 -37 -38 l-38 -34 34 38 c33 34 41 42 41 34z
m150 -7220 c0 -2 -17 -19 -37 -38 l-38 -34 34 38 c33 34 41 42 41 34z" fill="#145aa0"/>
<path d="M5102 6430 c-180 -33 -347 -133 -509 -304 -273 -288 -300 -613 -88
-1031 84 -166 294 -479 406 -604 21 -24 39 -46 39 -47 0 -4 20 -30 217 -283
212 -270 316 -434 371 -582 l27 -74 3 -839 c2 -792 3 -837 20 -825 15 12 14
11 -1 -8 -17 -19 -18 -42 -17 -234 0 -117 2 -214 3 -215 6 -5 208 -36 327 -49
468 -52 991 -40 1425 33 l100 17 0 1055 0 1055 23 65 c62 170 186 365 422 660
371 466 512 666 620 885 187 376 180 669 -20 940 -44 59 -192 202 -255 245
-69 48 -194 108 -265 127 -48 13 -98 18 -190 17 -155 -2 -241 -23 -502 -125
-100 -39 -231 -89 -290 -109 -59 -21 -104 -41 -100 -45 4 -5 2 -5 -5 -2 -6 4
-49 -2 -95 -12 -135 -32 -259 -42 -373 -30 -119 13 -287 55 -411 102 -49 19
-168 64 -264 102 -96 37 -217 78 -270 91 -106 28 -266 38 -348 24z m216 -230
c87 -15 196 -50 416 -137 218 -85 298 -112 451 -150 101 -25 126 -27 305 -28
124 0 217 5 255 13 71 15 278 72 284 78 3 2 -6 16 -20 32 l-24 27 30 -27 30
-26 180 70 c322 125 437 158 552 158 195 0 457 -183 562 -391 52 -104 68 -195
53 -296 -31 -198 -125 -387 -362 -728 -16 -23 -44 -58 -255 -325 -424 -534
-544 -739 -575 -980 -5 -46 -7 -433 -3 -991 l6 -917 -39 -6 c-130 -20 -438
-46 -539 -46 l-33 0 -6 63 c-3 34 -10 166 -16 292 -6 127 -17 367 -25 535 -8
168 -15 315 -15 328 0 16 -4 21 -12 16 -7 -4 -10 -3 -5 1 4 5 -3 20 -15 34
l-23 26 29 -25 28 -25 -6 85 c-3 47 -11 200 -17 340 -6 140 -13 257 -15 259
-2 2 -4 -16 -4 -40 0 -24 -4 -129 -10 -234 -23 -479 -23 -468 -9 -459 12 7 12
5 1 -9 -10 -12 -19 -120 -33 -414 -11 -219 -23 -480 -28 -581 -5 -101 -12
-186 -15 -189 -13 -14 -577 34 -593 51 -2 2 -4 428 -3 947 0 807 -2 948 -15
972 -8 15 -10 25 -5 22 14 -9 13 0 -16 94 -61 201 -181 391 -490 778 -173 216
-361 464 -432 570 -139 206 -234 432 -248 592 -16 176 92 376 279 517 151 113
283 150 445 124z m802 -94 c0 -2 -8 -10 -17 -17 -16 -13 -17 -12 -4 4 13 16
21 21 21 13z m815 -16 c10 -11 16 -20 13 -20 -3 0 -13 9 -23 20 -10 11 -16 20
-13 20 3 0 13 -9 23 -20z m-895 -64 c0 -2 -8 -10 -17 -17 -16 -13 -17 -12 -4
4 13 16 21 21 21 13z m-565 -2196 c10 -11 16 -20 13 -20 -3 0 -13 9 -23 20
-10 11 -16 20 -13 20 3 0 13 -9 23 -20z m80 -80 c10 -11 16 -20 13 -20 -3 0
-13 9 -23 20 -10 11 -16 20 -13 20 3 0 13 -9 23 -20z m1955 6 c0 -2 -8 -10
-17 -17 -16 -13 -17 -12 -4 4 13 16 21 21 21 13z m-40 -40 c0 -2 -8 -10 -17
-17 -16 -13 -17 -12 -4 4 13 16 21 21 21 13z m-1835 -46 c10 -11 16 -20 13
-20 -3 0 -13 9 -23 20 -10 11 -16 20 -13 20 3 0 13 -9 23 -20z m1795 6 c0 -2
-8 -10 -17 -17 -16 -13 -17 -12 -4 4 13 16 21 21 21 13z m-1715 -86 c10 -11
16 -20 13 -20 -3 0 -13 9 -23 20 -10 11 -16 20 -13 20 3 0 13 -9 23 -20z
m1635 6 c0 -2 -8 -10 -17 -17 -16 -13 -17 -12 -4 4 13 16 21 21 21 13z m-80
-79 c0 -2 -10 -12 -22 -23 l-23 -19 19 23 c18 21 26 27 26 19z m-35 -1447 c10
-11 16 -20 13 -20 -3 0 -13 9 -23 20 -10 11 -16 20 -13 20 3 0 13 -9 23 -20z
m80 -80 c10 -11 16 -20 13 -20 -3 0 -13 9 -23 20 -10 11 -16 20 -13 20 3 0 13
-9 23 -20z m-1565 6 c0 -2 -8 -10 -17 -17 -16 -13 -17 -12 -4 4 13 16 21 21
21 13z m1645 -86 c10 -11 16 -20 13 -20 -3 0 -13 9 -23 20 -10 11 -16 20 -13
20 3 0 13 -9 23 -20z m-1725 6 c0 -2 -8 -10 -17 -17 -16 -13 -17 -12 -4 4 13
16 21 21 21 13z" fill="#145aa0"/>
</g>
</svg>
