<?xml version="1.0" standalone="no"?>
<!DOCTYPE svg PUBLIC "-//W3C//DTD SVG 20010904//EN"
 "http://www.w3.org/TR/2001/REC-SVG-20010904/DTD/svg10.dtd">
<svg version="1.0" xmlns="http://www.w3.org/2000/svg"
 width="15pt" height="15pt" viewBox="0 0 512.000000 512.000000"
 preserveAspectRatio="xMidYMid meet">

<g transform="translate(0.000000,512.000000) scale(0.100000,-0.100000)"
fill="#93c9ff" stroke="none">
<path d="M1615 4639 c-208 -19 -421 -84 -574 -174 -105 -62 -256 -204 -324
-305 -89 -131 -150 -296 -182 -490 -22 -136 -34 -504 -34 -1040 0 -540 12
-906 34 -1038 49 -293 154 -504 338 -678 197 -187 435 -277 805 -304 171 -13
1532 -12 1706 0 291 21 494 84 691 215 195 131 320 299 400 538 71 217 85 395
84 1142 0 660 -12 1060 -33 1178 -86 471 -374 798 -798 908 -202 52 -192 52
-1133 54 -484 2 -925 -1 -980 -6z m1775 -363 c207 -23 281 -41 396 -96 141
-68 225 -153 303 -307 41 -80 56 -132 83 -283 22 -122 22 -143 23 -910 0 -796
-4 -914 -40 -1105 -57 -305 -266 -511 -585 -575 -172 -35 -368 -41 -1123 -37
-762 4 -882 10 -1042 58 -257 77 -419 249 -485 515 -53 212 -55 256 -55 1064
0 651 3 764 18 895 26 214 41 276 93 384 56 116 148 214 262 280 93 54 160 77
302 102 176 32 350 37 1055 34 512 -2 681 -6 795 -19z"/>
<path d="M3514 3936 c-55 -26 -114 -90 -133 -145 -35 -105 9 -217 112 -283 45
-29 60 -33 117 -33 76 1 130 25 178 80 92 104 94 217 4 317 -81 89 -176 111
-278 64z"/>
<path d="M2375 3660 c-239 -38 -426 -131 -587 -293 -140 -141 -233 -304 -280
-494 -32 -127 -32 -369 0 -496 49 -195 142 -356 284 -493 190 -182 384 -271
636 -293 442 -39 833 180 1028 574 85 172 99 242 98 470 0 177 -2 196 -28 280
-53 178 -126 303 -254 437 -197 206 -417 303 -706 313 -72 2 -158 0 -191 -5z
m292 -366 c141 -29 258 -97 360 -209 69 -74 135 -196 159 -295 22 -84 22 -235
0 -324 -42 -174 -180 -349 -342 -434 -116 -60 -185 -76 -329 -75 -102 0 -132
4 -200 26 -111 37 -193 88 -284 178 -138 137 -198 294 -188 499 9 204 95 375
251 499 162 129 367 178 573 135z"/>
</g>
</svg>
