<?xml version="1.0" standalone="no"?>
<!DOCTYPE svg PUBLIC "-//W3C//DTD SVG 20010904//EN"
 "http://www.w3.org/TR/2001/REC-SVG-20010904/DTD/svg10.dtd">
<svg version="1.0" xmlns="http://www.w3.org/2000/svg"
 width="60pt" height="60pt" viewBox="0 0 230.000000 219.000000"
 preserveAspectRatio="xMidYMid meet">

<g transform="translate(0.000000,219.000000) scale(0.100000,-0.100000)"
fill="#145aa0" stroke="none">
<path d="M1105 2137 c-15 -37 -29 -57 -55 -71 l-35 -21 34 45 35 45 -32 -29
c-30 -28 -32 -28 -32 -9 0 24 52 73 78 74 10 0 12 3 5 5 -18 8 -71 -23 -84
-49 -7 -12 -15 -35 -19 -52 -8 -40 -99 -103 -205 -144 -120 -46 -200 -97 -292
-188 -83 -81 -114 -97 -48 -24 19 21 35 42 35 46 0 4 -10 -5 -21 -19 -16 -21
-24 -24 -30 -15 -6 11 -9 10 -13 -1 -2 -8 -12 -39 -22 -69 -9 -30 -33 -80 -53
-112 -65 -103 -61 -100 -57 -39 2 30 7 66 11 80 5 19 4 22 -4 10 -9 -13 -11
-12 -12 5 0 20 -1 20 -8 0 -7 -18 -9 -18 -26 8 -13 20 -16 39 -12 68 7 53 14
59 39 29 l20 -25 -18 33 c-23 40 -29 40 -43 1 -18 -53 -13 -95 15 -129 26 -30
27 -35 20 -113 -3 -45 -13 -102 -22 -127 -44 -125 -57 -308 -30 -423 11 -49
11 -56 0 -46 -8 6 -14 26 -15 43 0 26 -2 28 -9 11 -7 -18 -9 -17 -24 15 -8 19
-15 28 -16 20 0 -10 -9 -16 -24 -16 -14 0 -23 3 -20 7 2 4 -4 13 -14 20 -15
13 -16 12 -3 -3 21 -27 -2 -21 -29 7 -23 24 -23 25 -3 25 11 0 32 -9 47 -21
18 -14 24 -16 20 -5 -6 16 -93 60 -101 52 -7 -7 20 -49 49 -76 16 -15 33 -20
56 -18 17 2 32 0 32 -4 0 -5 18 -33 40 -62 22 -29 48 -78 59 -108 10 -30 26
-69 35 -86 9 -18 14 -32 11 -32 -13 0 -85 64 -90 81 -3 9 -18 25 -33 34 l-27
18 30 -33 30 -32 -33 17 c-19 9 -36 14 -40 11 -3 -3 -1 -6 4 -6 6 0 19 -7 30
-15 18 -14 17 -14 -15 -15 -26 0 -41 8 -67 36 -43 45 -45 37 -3 -11 28 -31 36
-35 80 -35 45 0 54 -4 107 -53 32 -28 72 -72 88 -97 69 -107 228 -247 332
-291 36 -16 45 -33 9 -20 -13 5 -36 7 -51 4 -46 -9 -8 -23 64 -23 43 0 95 -10
155 -29 83 -27 88 -29 60 -37 -16 -4 -52 -8 -79 -8 -30 0 -41 -3 -30 -7 18 -7
18 -7 1 -14 -15 -6 -16 -10 -5 -17 24 -16 -28 -48 -80 -48 l-45 0 24 26 c13
15 38 33 54 40 19 8 23 13 13 14 -22 0 -100 -69 -92 -81 8 -14 82 -11 112 5
15 8 34 26 41 39 18 34 95 47 281 46 160 -2 273 18 369 65 28 13 51 21 51 16
0 -12 -22 -27 -51 -33 -29 -7 -79 -44 -79 -58 0 -14 33 -11 56 6 12 8 24 12
28 10 3 -3 5 -3 3 0 -8 12 95 108 166 154 42 28 77 48 77 45 0 -13 -40 -82
-55 -94 -28 -24 -45 -67 -45 -119 0 -27 4 -52 8 -55 12 -7 59 43 72 78 8 21 8
38 -1 63 -10 30 -7 39 27 100 20 36 67 99 105 140 96 104 179 256 196 360 4
23 9 31 16 24 7 -7 7 -18 -1 -36 -15 -32 -15 -57 -1 -31 10 17 12 16 29 -10
12 -17 17 -38 14 -53 -4 -20 3 -36 30 -66 l35 -40 1 33 c0 45 -22 95 -53 115
-37 24 -51 101 -42 235 l8 106 23 -45 c13 -24 23 -58 24 -75 0 -16 7 -39 16
-50 15 -18 15 -18 5 3 -20 41 -10 48 20 13 18 -21 26 -26 20 -13 -6 12 -16 25
-21 28 -6 3 -10 11 -10 16 0 22 59 -23 69 -52 15 -42 14 -72 -1 -63 -7 4 -8 3
-4 -4 16 -26 28 -11 23 28 -7 54 -29 86 -76 109 -47 25 -72 83 -106 255 -26
131 -78 253 -146 344 -22 28 -35 52 -29 52 5 0 21 -17 35 -38 28 -43 85 -82
85 -59 0 8 -9 26 -21 41 -25 31 -21 32 24 6 27 -16 44 -19 76 -14 42 7 52 18
25 28 -8 3 -13 2 -9 -3 10 -17 -53 -23 -82 -7 -24 12 -26 15 -10 21 10 4 32 5
50 1 23 -4 28 -3 17 4 -18 12 -80 13 -98 1 -21 -13 -117 44 -199 118 -40 35
-72 66 -70 67 6 6 93 -20 112 -33 25 -17 44 -17 20 0 -17 13 -17 15 6 30 13
10 37 17 54 17 34 0 79 -26 70 -41 -4 -5 -2 -9 4 -9 25 0 18 20 -13 39 -40 25
-97 27 -132 5 -23 -16 -29 -16 -87 0 -34 9 -110 41 -168 71 -128 65 -224 93
-347 102 -56 4 -88 9 -80 14 7 5 33 7 58 5 25 -2 32 -1 17 1 -31 5 -32 29 -1
26 10 -1 14 0 7 3 -9 4 -7 11 7 26 11 12 17 25 14 29 -2 5 7 16 21 25 14 9 24
19 21 21 -9 10 -55 -29 -66 -57 -14 -33 -36 -50 -100 -74 -47 -17 -220 -46
-220 -37 0 8 60 48 111 74 33 16 50 34 67 69 13 26 22 52 20 57 -1 6 -12 -13
-23 -42z m214 -168 c70 -12 83 -23 76 -68 -5 -33 -1 -30 11 8 6 20 76 -55 72
-76 -4 -24 -21 -20 -35 8 -10 18 -13 20 -13 7 0 -10 10 -28 21 -39 17 -17 23
-19 30 -8 18 29 8 61 -33 106 l-43 46 30 -7 c17 -4 55 -20 85 -34 47 -23 55
-31 52 -52 -2 -20 0 -22 8 -10 8 12 11 11 17 -9 6 -24 6 -24 14 -3 5 12 12 22
16 22 16 0 142 -100 159 -125 15 -24 15 -27 0 -44 -9 -9 -16 -24 -15 -32 0 -8
4 -3 10 9 12 31 32 23 40 -14 l7 -29 1 30 c0 17 -4 36 -11 43 -6 6 -9 14 -6
17 8 8 109 -119 152 -190 43 -72 46 -100 11 -109 -24 -6 -52 -42 -41 -53 3 -3
17 2 31 11 35 23 31 4 -5 -22 -16 -13 -30 -28 -30 -35 0 -6 7 -1 16 11 19 28
35 28 31 1 -2 -12 -14 -28 -28 -35 -17 -10 -19 -13 -7 -14 26 0 58 48 58 89 0
56 14 67 30 23 24 -67 38 -132 30 -137 -5 -3 -7 -17 -5 -33 4 -34 -11 -62 -33
-63 -11 0 -12 -2 -4 -6 16 -6 41 14 52 42 6 12 9 -20 9 -86 1 -76 -3 -111 -13
-125 -8 -10 -17 -16 -21 -12 -12 12 -62 -12 -91 -45 l-29 -31 38 32 c21 18 44
32 52 32 8 0 18 1 22 3 3 1 7 -6 9 -16 2 -13 -8 -23 -29 -32 -18 -8 -26 -14
-19 -15 23 0 51 20 66 48 34 62 2 -87 -45 -208 -33 -87 -53 -107 -84 -84 -21
16 -51 18 -59 5 -4 -5 3 -7 13 -4 11 3 28 0 38 -6 17 -10 17 -10 0 -11 -11 0
-15 -4 -11 -12 5 -8 0 -9 -17 -4 -52 16 -65 17 -84 2 -17 -14 -18 -17 -5 -26
8 -5 20 -10 25 -10 6 0 3 5 -5 10 -23 14 3 34 35 26 l26 -7 -23 -19 c-20 -18
-21 -19 -3 -13 11 3 39 17 63 31 23 13 42 21 42 18 0 -10 -31 -57 -67 -103
-30 -37 -38 -42 -66 -37 -25 3 -28 2 -12 -5 18 -9 17 -10 -10 -11 -29 -2 -30
-2 -5 -10 l25 -7 -28 -8 c-28 -7 -62 9 -51 26 3 5 -2 6 -12 2 -28 -10 24 -45
59 -38 15 2 27 3 27 1 0 -3 -34 -32 -76 -65 -79 -64 -111 -74 -132 -41 -7 11
-17 20 -24 20 -6 0 -4 -7 5 -18 19 -21 22 -37 5 -26 -7 5 -8 3 -3 -6 6 -9 2
-10 -16 -5 -28 9 -51 26 -44 33 2 3 13 -1 22 -9 16 -13 17 -12 4 4 -8 10 -20
16 -27 13 -14 -5 -37 17 -27 27 3 4 -2 7 -12 7 -16 0 -13 -7 16 -36 42 -44 73
-58 101 -43 11 6 22 8 25 5 18 -18 -280 -132 -313 -119 -9 3 -19 1 -23 -5 -3
-5 -43 -13 -88 -17 l-81 -7 -16 30 c-15 30 -61 72 -77 72 -13 0 -11 -54 3 -68
20 -20 32 -13 14 7 -10 11 -16 27 -14 36 3 14 5 14 25 0 23 -16 51 -57 36 -53
-4 1 -19 -2 -31 -6 -28 -9 -142 10 -189 31 -29 13 -31 18 -30 58 1 25 -4 50
-11 57 -10 10 -10 7 -1 -19 7 -23 7 -37 0 -50 -6 -11 -11 -13 -11 -5 0 7 -4
11 -9 8 -5 -3 -8 11 -6 31 2 35 2 36 -5 8 -6 -26 -8 -24 -9 19 -1 43 1 47 15
36 13 -12 14 -10 3 14 -12 25 -14 26 -20 9 -4 -10 -8 -37 -8 -61 -1 -33 5 -49
24 -67 13 -14 20 -25 16 -25 -21 0 -133 57 -203 103 -78 51 -92 73 -63 97 8 7
15 18 15 24 0 6 -7 2 -15 -8 -8 -11 -17 -17 -20 -14 -3 3 4 16 15 31 29 36 25
48 -5 12 -26 -32 -35 -22 -10 11 17 23 20 70 3 80 -6 4 -17 -2 -25 -12 -15
-20 -13 -65 5 -122 l11 -32 -27 22 c-15 13 -44 42 -65 65 -38 41 -38 42 -22
73 9 17 14 43 12 58 -4 26 -4 26 -6 -3 -2 -37 -21 -72 -21 -40 0 17 -2 17 -10
5 -7 -11 -10 -7 -10 17 0 22 7 37 20 45 11 7 20 17 20 22 0 21 -49 -38 -52
-63 -3 -23 -8 -18 -41 42 -21 37 -41 84 -44 103 -5 30 -1 39 24 62 16 15 22
22 14 16 -34 -24 -39 -24 -39 2 0 13 3 22 6 20 8 -9 32 15 26 26 -3 5 8 14 25
21 17 6 31 15 31 20 0 14 -79 -35 -95 -60 -9 -14 -13 -34 -10 -50 5 -24 5 -25
-5 -10 -40 64 -62 329 -36 453 10 53 13 57 50 69 45 16 81 48 72 64 -10 16
-48 14 -74 -5 -22 -15 -22 -15 -11 13 25 67 74 155 91 164 12 6 25 6 37 -1 11
-5 32 -9 48 -9 25 2 25 2 -7 8 -41 7 -51 33 -18 49 23 12 23 12 -2 6 -14 -3
-31 -13 -37 -22 -7 -9 -13 -12 -13 -8 0 33 196 236 228 236 8 0 25 -11 38 -25
13 -14 30 -25 39 -25 19 0 19 9 -2 32 -9 10 -12 18 -6 18 5 0 18 -9 28 -20 10
-11 23 -20 29 -20 6 0 0 7 -12 16 -30 20 -28 32 4 28 31 -3 49 -25 31 -36 -8
-5 -7 -8 5 -8 29 0 29 17 1 40 -24 19 -35 21 -87 15 -72 -9 -69 1 18 50 72 40
82 42 110 18 18 -15 19 -15 8 -1 -11 14 -10 17 7 23 30 9 59 -3 66 -26 4 -11
9 -19 11 -16 11 10 -12 40 -39 52 l-30 13 56 16 c137 40 295 49 436 25z m-644
-189 c10 -11 14 -20 8 -20 -5 0 -18 9 -28 20 -10 11 -14 20 -8 20 5 0 18 -9
28 -20z m1329 -192 c9 -12 13 -24 11 -27 -6 -6 -44 29 -57 52 -8 16 -7 17 11
8 11 -6 27 -21 35 -33z m-19 -188 c-7 -11 -45 -33 -45 -26 0 2 7 12 16 20 17
18 39 22 29 6z m-1625 -40 c0 -10 -58 -50 -72 -50 -10 0 -4 26 11 44 15 18 61
22 61 6z m1810 -660 c16 -38 7 -49 -20 -25 -20 18 -26 45 -14 58 10 10 20 0
34 -33z m-1612 -182 c-3 -35 -28 -52 -28 -20 0 28 10 52 22 52 5 0 8 -14 6
-32z m1148 -300 c-6 -32 -6 -32 6 -8 12 25 12 25 16 -13 3 -37 -27 -97 -49
-97 -15 0 -10 88 6 120 20 39 28 38 21 -2z m-209 -53 c-25 -22 -57 -33 -57
-20 0 8 63 45 75 45 6 -1 -3 -12 -18 -25z"/>
<path d="M1058 1948 c9 -30 23 -50 47 -68 11 -8 8 -1 -7 16 -32 35 -41 79 -10
51 9 -8 21 -16 27 -16 5 0 11 -5 14 -12 2 -7 -1 -9 -8 -5 -7 5 -9 1 -4 -9 5
-13 7 -14 14 -3 7 11 9 10 9 -1 0 -8 3 -12 6 -9 9 9 -23 65 -41 72 -9 3 -25 6
-35 6 -14 0 -17 -5 -12 -22z"/>
<path d="M820 1896 c0 -2 7 -7 16 -10 8 -3 12 -2 9 4 -6 10 -25 14 -25 6z"/>
<path d="M1151 1872 c-1 -8 -6 -10 -13 -6 -8 5 -7 1 2 -10 15 -19 26 -7 17 17
-4 9 -6 9 -6 -1z"/>
<path d="M1406 1865 c-3 -8 -1 -15 4 -15 6 0 10 7 10 15 0 8 -2 15 -4 15 -2 0
-6 -7 -10 -15z"/>
<path d="M1626 1821 c4 -19 2 -37 -6 -46 -7 -9 -8 -15 -2 -15 21 0 31 73 12
85 -6 4 -7 -6 -4 -24z"/>
<path d="M1796 1635 c-9 -26 -7 -32 5 -12 6 10 9 21 6 23 -2 3 -7 -2 -11 -11z"/>
<path d="M1800 1595 c-10 -19 -16 -22 -22 -13 -5 9 -8 6 -8 -9 0 -13 2 -23 4
-23 8 0 48 61 44 66 -3 2 -11 -7 -18 -21z"/>
<path d="M490 1579 c13 -6 27 -15 31 -21 4 -6 13 -8 20 -6 15 5 -41 38 -63 37
-7 0 -2 -5 12 -10z"/>
<path d="M2019 1218 c-12 -23 -12 -23 10 -4 23 21 26 26 11 26 -5 0 -15 -10
-21 -22z"/>
<path d="M314 1216 c-28 -12 -51 -42 -40 -53 9 -9 84 18 90 33 14 37 2 42 -50
20z m37 -20 c-6 -7 -22 -16 -35 -18 -21 -4 -23 -3 -13 13 6 10 20 20 32 21 27
5 30 1 16 -16z"/>
<path d="M250 1146 c-15 -15 -12 -26 6 -26 9 0 12 5 8 11 -5 8 4 10 30 7 20
-2 36 -1 36 3 0 11 -69 16 -80 5z"/>
<path d="M1192 259 c8 -23 22 -36 55 -50 25 -10 49 -19 54 -19 12 0 11 37 -1
61 -14 26 -30 24 -29 -3 0 -21 1 -21 8 -4 7 18 8 18 14 2 4 -10 7 -21 7 -26 0
-13 -31 -5 -41 11 -6 10 -9 11 -9 1 0 -17 -49 18 -50 36 0 18 27 15 39 -5 6
-10 11 -13 11 -7 0 17 -23 34 -46 34 -21 0 -22 -2 -12 -31z"/>
<path d="M300 1340 c-9 -6 -10 -10 -3 -10 6 0 15 5 18 10 8 12 4 12 -15 0z"/>
<path d="M1335 2150 c9 -15 -22 -59 -48 -70 -14 -6 -16 -9 -6 -9 14 -1 45 27
78 72 12 15 11 17 -8 17 -13 0 -19 -4 -16 -10z"/>
<path d="M1295 2040 c12 -5 14 -9 6 -9 -8 -1 -12 -3 -9 -6 8 -9 38 6 32 16 -3
5 -15 9 -27 8 -21 0 -21 -1 -2 -9z"/>
<path d="M416 1904 c-8 -22 -8 -24 6 -21 6 1 15 -9 19 -23 7 -20 8 -19 4 9 -3
18 -5 37 -5 42 0 15 -18 10 -24 -7z"/>
<path d="M401 1834 c-1 -40 20 -86 32 -67 3 5 2 23 -3 39 -6 22 -9 25 -11 9
-1 -11 -5 -2 -9 20 l-7 40 -2 -41z"/>
<path d="M441 1804 c0 -11 3 -14 6 -6 3 7 2 16 -1 19 -3 4 -6 -2 -5 -13z"/>
<path d="M473 1793 c-10 -10 -13 -14 -6 -10 6 5 17 6 23 2 5 -3 10 1 10 9 0
20 -3 20 -27 -1z"/>
<path d="M1873 1793 c9 -2 25 -2 35 0 9 3 1 5 -18 5 -19 0 -27 -2 -17 -5z"/>
<path d="M1903 1763 c9 -2 23 -2 30 0 6 3 -1 5 -18 5 -16 0 -22 -2 -12 -5z"/>
<path d="M271 1644 c0 -11 3 -14 6 -6 3 7 2 16 -1 19 -3 4 -6 -2 -5 -13z"/>
<path d="M157 1006 c-4 -10 0 -14 12 -13 11 1 17 7 14 14 -7 17 -20 17 -26 -1z"/>
<path d="M73 793 c9 -2 25 -2 35 0 9 3 1 5 -18 5 -19 0 -27 -2 -17 -5z"/>
<path d="M2061 744 c0 -11 3 -14 6 -6 3 7 2 16 -1 19 -3 4 -6 -2 -5 -13z"/>
<path d="M2081 719 c-7 -12 -10 -23 -8 -26 3 -3 11 5 17 17 15 28 8 35 -9 9z"/>
<path d="M595 260 c10 -11 22 -20 27 -20 4 0 -1 9 -12 20 -11 11 -23 20 -27
20 -3 0 2 -9 12 -20z"/>
<path d="M625 273 c11 -3 24 -9 30 -14 5 -5 14 -9 20 -9 5 0 1 7 -9 15 -11 8
-29 14 -40 14 -20 -1 -21 -1 -1 -6z"/>
<path d="M527 209 c-21 -11 -35 -24 -32 -29 17 -28 152 4 142 33 -6 20 -69 18
-110 -4z m78 1 c-21 -5 -24 -8 -10 -10 l20 -1 -20 -9 c-11 -5 -33 -9 -50 -9
l-30 0 24 19 c14 13 37 20 60 19 l36 -1 -30 -8z"/>
<path d="M1497 120 c-3 -11 -1 -18 4 -14 15 9 10 -9 -13 -46 l-23 -35 -3 27
c-2 15 4 38 14 52 9 14 14 26 10 26 -13 0 -34 -48 -41 -90 l-6 -45 40 42 c30
31 41 51 41 73 0 34 -15 41 -23 10z"/>
<path d="M785 100 c-3 -6 1 -7 9 -4 18 7 21 14 7 14 -6 0 -13 -4 -16 -10z"/>
</g>
</svg>
