<?xml version="1.0" standalone="no"?>
<!DOCTYPE svg PUBLIC "-//W3C//DTD SVG 20010904//EN"
 "http://www.w3.org/TR/2001/REC-SVG-20010904/DTD/svg10.dtd">
<svg version="1.0" xmlns="http://www.w3.org/2000/svg"
 width="45pt" height="45pt" viewBox="0 0 512.000000 512.000000"
 preserveAspectRatio="xMidYMid meet">

<g transform="translate(0.000000,512.000000) scale(0.100000,-0.100000)"
fill="#145aa0" stroke="none">
<path d="M2355 4629 c-392 -37 -800 -206 -1110 -459 -747 -610 -976 -1661
-550 -2526 523 -1063 1821 -1476 2860 -909 975 531 1360 1744 870 2741 -383
779 -1201 1234 -2070 1153z m485 -2084 l0 -1035 -197 2 -198 3 -5 738 -5 738
-75 -60 c-41 -33 -108 -79 -148 -102 -80 -46 -244 -119 -267 -119 -13 0 -15
27 -15 176 0 174 0 176 23 182 40 10 181 87 251 137 142 101 227 195 286 314
l31 61 159 0 160 0 0 -1035z"/>
</g>
</svg>
