<?xml version="1.0" standalone="no"?>
<!DOCTYPE svg PUBLIC "-//W3C//DTD SVG 20010904//EN"
 "http://www.w3.org/TR/2001/REC-SVG-20010904/DTD/svg10.dtd">
<svg version="1.0" xmlns="http://www.w3.org/2000/svg"
 width="34pt" height="34pt" viewBox="0 0 640.000000 640.000000"
 preserveAspectRatio="xMidYMid meet">

<g transform="translate(0.000000,640.000000) scale(0.100000,-0.100000)"
fill="#145aa0" stroke="none">
<path d="M2865 5509 c-830 -79 -1578 -619 -1911 -1381 -498 -1139 -10 -2460
1111 -3008 659 -321 1433 -318 2080 9 257 130 438 264 635 467 548 564 767
1349 594 2124 -70 312 -227 638 -435 906 -99 126 -304 327 -429 421 -472 352
-1059 517 -1645 462z m359 -609 c775 -63 1392 -603 1558 -1363 20 -89 22 -131
22 -337 0 -206 -2 -248 -22 -337 -34 -156 -76 -276 -147 -418 -343 -688 -1105
-1064 -1863 -920 -484 92 -904 388 -1162 819 -95 159 -170 361 -208 561 -23
126 -23 464 0 590 66 352 223 650 472 901 295 295 667 469 1076 503 139 12
136 12 274 1z" fill="#145aa0"/>
<path d="M2980 4693 c-27 -10 -67 -38 -101 -72 -91 -92 -89 -77 -89 -632 l0
-478 -492 -3 -493 -3 -57 -28 c-215 -106 -237 -398 -39 -531 79 -53 113 -56
619 -56 l462 0 0 -478 c0 -540 -1 -536 75 -620 59 -65 122 -95 212 -100 94 -5
157 16 223 75 106 95 111 128 108 690 l-3 432 490 3 490 3 57 28 c72 35 141
111 163 178 23 67 17 169 -12 229 -31 63 -88 119 -153 149 l-55 26 -490 5
-490 5 0 475 c0 537 1 532 -78 618 -68 73 -117 96 -216 99 -61 2 -99 -2 -131
-14z" fill="#145aa0"/>
</g>
</svg>
