<?xml version="1.0" standalone="no"?>
<!DOCTYPE svg PUBLIC "-//W3C//DTD SVG 20010904//EN"
 "http://www.w3.org/TR/2001/REC-SVG-20010904/DTD/svg10.dtd">
<svg version="1.0" xmlns="http://www.w3.org/2000/svg"
 width="20pt" height="20pt" viewBox="0 0 981.000000 980.000000" 
 preserveAspectRatio="xMidYMid meet">

<g transform="translate(0.000000,980.000000) scale(0.100000,-0.100000)"
fill="#145aa0" stroke="none">
<path d="M5595 9789 c-208 -22 -400 -79 -610 -184 -283 -140 -506 -340 -689
-615 -31 -46 -56 -90 -56 -96 0 -6 25 -14 58 -18 94 -11 242 -44 324 -73 43
-14 79 -25 81 -22 224 304 524 495 871 554 49 8 145 15 215 15 365 0 684 -132
941 -390 159 -158 264 -327 330 -531 55 -168 64 -244 64 -564 l1 -290 -532 -3
-532 -2 29 -69 c34 -80 72 -209 90 -303 l12 -68 469 0 469 0 0 -225 0 -225
143 0 c128 0 218 -12 280 -35 16 -7 17 9 17 239 l0 246 680 0 c374 0 680 -1
681 -2 5 -25 333 -4450 330 -4454 -2 -2 -222 -4 -488 -4 l-483 0 0 -22 c0 -13
9 -106 20 -208 11 -102 20 -191 20 -197 0 -10 105 -13 489 -13 l490 0 5 -42
c11 -83 36 -341 36 -374 l0 -34 -485 0 -485 0 0 -22 c0 -13 9 -106 20 -208 11
-102 20 -191 20 -197 0 -10 129 -13 609 -13 l609 0 53 28 c43 22 59 38 81 81
19 36 28 68 28 100 0 25 -101 1351 -224 2946 -203 2646 -225 2903 -243 2940
-29 56 -66 93 -115 115 -41 19 -74 20 -845 20 l-801 0 -5 343 c-4 321 -6 349
-30 458 -81 366 -238 653 -502 914 -380 376 -904 560 -1440 504z"/>
<path d="M3755 8445 c-264 -42 -498 -131 -715 -272 -372 -242 -650 -631 -759
-1061 -41 -161 -51 -276 -51 -580 l0 -291 -807 -3 -808 -3 -42 -22 c-55 -30
-101 -87 -118 -148 -8 -30 -102 -1208 -236 -2960 -194 -2550 -220 -2916 -209
-2955 15 -57 80 -124 135 -139 61 -17 7672 -16 7729 1 23 7 59 30 83 54 77 77
91 -194 -161 3072 l-225 2923 -29 52 c-33 59 -90 104 -148 117 -22 5 -387 10
-821 10 l-783 0 0 274 c0 449 -38 646 -180 941 -172 356 -451 638 -805 814
-273 137 -452 180 -760 186 -143 3 -226 0 -290 -10z m495 -451 c181 -34 354
-105 510 -209 103 -69 254 -217 330 -322 88 -124 174 -304 212 -449 l32 -119
4 -327 4 -328 -1337 0 -1337 0 5 303 c6 332 16 406 78 584 165 471 600 819
1102 883 96 12 292 4 397 -16z m-2020 -2682 l0 -478 -28 -16 c-72 -43 -141
-132 -173 -226 -23 -68 -25 -197 -4 -268 22 -74 86 -167 151 -218 224 -176
547 -100 674 158 60 122 53 294 -17 413 -30 51 -89 114 -132 139 l-31 18 0
478 0 478 1335 0 1335 0 0 -477 0 -478 -53 -41 c-122 -94 -188 -270 -157 -420
52 -253 304 -415 546 -350 325 86 443 485 216 728 -26 27 -59 56 -74 64 l-28
15 0 479 0 480 679 0 679 0 6 -62 c9 -91 326 -4332 326 -4362 l0 -26 -3470 0
-3470 0 0 32 c0 38 317 4288 326 4366 l5 52 680 0 679 0 0 -478z m5300 -4430
c0 -4 9 -95 20 -202 11 -107 20 -204 20 -217 l0 -23 -3550 0 c-2897 0 -3550 2
-3550 13 0 7 9 100 20 207 11 107 20 202 20 212 0 17 141 18 3510 18 1931 0
3510 -4 3510 -8z"/>
</g>
</svg>
