<?xml version="1.0" standalone="no"?>
<!DOCTYPE svg PUBLIC "-//W3C//DTD SVG 20010904//EN"
 "http://www.w3.org/TR/2001/REC-SVG-20010904/DTD/svg10.dtd">
<svg version="1.0" xmlns="http://www.w3.org/2000/svg"
 width="30pt" height="30pt" viewBox="0 0 278.000000 280.000000"
 preserveAspectRatio="xMidYMid meet">

<g transform="translate(0.000000,280.000000) scale(0.100000,-0.100000)"
fill="#145aa0" stroke="none">
<path d="M1378 2423 l-3 -268 -65 -6 c-36 -4 -85 -12 -110 -19 -37 -10 -46
-10 -53 1 -4 8 -50 120 -101 249 -82 207 -116 273 -116 228 0 -7 43 -120 95
-251 52 -130 95 -240 95 -244 0 -5 -27 -21 -60 -36 -33 -15 -90 -50 -126 -78
l-67 -50 -126 124 c-151 148 -249 241 -262 245 -31 12 13 -37 180 -203 l190
-187 -44 -54 c-24 -29 -56 -74 -71 -99 -14 -25 -32 -44 -38 -42 -292 119 -486
197 -490 197 -3 0 -6 -6 -6 -13 0 -8 99 -53 245 -111 135 -54 245 -102 245
-107 0 -5 -11 -48 -25 -95 -14 -47 -25 -101 -25 -120 l0 -34 -265 0 c-229 0
-265 -2 -265 -15 0 -13 35 -15 259 -15 l259 0 7 -72 c4 -40 13 -99 21 -131 8
-33 14 -63 12 -69 -4 -10 -44 -23 -376 -128 -92 -29 -132 -46 -132 -56 0 -10
6 -13 18 -10 9 3 123 40 252 81 129 41 240 75 246 75 6 0 17 -13 24 -30 7 -16
32 -59 56 -96 25 -37 43 -71 42 -75 -2 -4 -86 -86 -188 -183 -102 -97 -187
-181 -189 -187 -11 -33 47 14 214 174 l186 179 52 -49 c29 -27 73 -64 100 -81
l47 -33 -66 -127 c-37 -70 -93 -177 -125 -239 -38 -71 -55 -114 -48 -118 6 -4
12 -5 13 -4 2 2 59 110 126 240 l123 236 60 -25 c33 -13 96 -31 139 -40 l78
-16 2 -260 c2 -197 6 -260 16 -264 9 -3 12 54 12 262 l0 266 78 1 c42 0 108 8
145 18 48 12 70 14 73 7 131 -336 194 -491 203 -494 6 -2 11 2 11 9 0 7 -43
123 -95 257 -53 134 -95 245 -93 247 2 1 30 16 63 34 33 17 85 51 115 75 l55
43 193 -189 c105 -104 197 -186 202 -183 15 9 9 16 -185 205 -99 96 -181 178
-183 182 -2 4 17 32 42 62 25 31 60 83 78 116 18 33 38 60 44 60 6 0 116 -43
244 -95 128 -52 239 -95 247 -95 46 0 -19 33 -234 119 -133 53 -244 99 -248
102 -3 4 3 40 15 80 11 40 20 88 20 105 0 67 -14 64 270 64 234 0 300 6 254
24 -9 3 -127 6 -264 6 l-249 0 -6 58 c-4 31 -11 73 -16 92 -16 61 -12 67 39
84 26 8 140 45 255 81 114 37 207 71 207 76 0 17 -31 9 -269 -66 -130 -41
-241 -75 -247 -75 -6 0 -19 21 -29 47 -10 26 -43 83 -73 127 l-54 80 186 181
c103 99 187 183 186 188 -1 19 -30 -5 -206 -172 l-188 -179 -50 45 c-27 24
-78 61 -113 81 -51 30 -62 41 -58 57 2 11 56 120 120 243 63 122 115 225 115
227 0 3 -6 5 -13 5 -7 0 -69 -108 -137 -240 -85 -164 -129 -239 -138 -235 -48
18 -133 38 -190 43 l-67 7 -3 268 c-1 163 -6 267 -12 267 -6 0 -11 -104 -12
-267z m174 -314 c220 -48 426 -224 514 -439 111 -274 44 -594 -169 -797 -122
-116 -233 -172 -394 -200 -83 -14 -112 -15 -192 -4 -173 21 -289 76 -416 193
-308 286 -313 760 -13 1055 73 71 148 121 237 157 55 22 87 30 201 50 36 6
173 -3 232 -15z"/>
<path d="M960 1910 c0 -5 -9 -10 -20 -10 -11 0 -20 -7 -20 -15 0 -9 9 -15 25
-15 17 0 28 -7 34 -22 12 -32 2 -44 -16 -19 -10 14 -25 21 -49 21 -43 0 -44
-13 -1 -25 34 -11 37 -25 21 -102 -5 -27 -3 -33 10 -33 10 0 16 8 16 23 0 57
81 126 148 127 43 0 92 -32 139 -89 47 -59 63 -71 63 -50 0 21 -81 118 -118
141 -26 16 -50 22 -89 21 -37 -1 -53 2 -53 11 0 21 -35 46 -63 46 -15 0 -27
-4 -27 -10z m60 -39 c5 -11 6 -22 1 -25 -4 -3 -13 6 -19 19 -14 30 2 34 18 6z"/>
<path d="M1792 1903 c-7 -3 -17 -15 -22 -28 -8 -20 -14 -23 -48 -18 -27 4 -50
-1 -78 -15 -64 -33 -151 -139 -130 -160 5 -4 16 4 25 18 30 46 84 101 114 117
38 19 109 12 146 -14 25 -19 53 -64 66 -107 4 -13 9 -16 16 -9 6 6 6 25 -2 56
-14 51 -3 77 32 77 11 0 19 7 19 16 0 13 -6 15 -27 9 -16 -3 -36 -14 -46 -22
-9 -9 -20 -14 -23 -10 -11 10 16 46 38 49 28 4 36 28 9 28 -12 0 -21 5 -21 10
0 10 -45 12 -68 3z m31 -38 c-19 -25 -33 -32 -33 -16 0 13 29 41 41 41 6 0 2
-11 -8 -25z"/>
<path d="M984 1366 c-12 -32 18 -127 59 -188 141 -209 463 -237 647 -58 56 55
99 139 102 202 4 61 -15 67 -23 8 -52 -359 -610 -411 -740 -70 -10 28 -19 63
-19 80 0 32 -17 50 -26 26z"/>
</g>
</svg>
