<?xml version="1.0" standalone="no"?>
<!DOCTYPE svg PUBLIC "-//W3C//DTD SVG 20010904//EN"
 "http://www.w3.org/TR/2001/REC-SVG-20010904/DTD/svg10.dtd">
<svg version="1.0" xmlns="http://www.w3.org/2000/svg"
 width="15pt" height="15pt" viewBox="0 0 626.000000 510.000000"
 preserveAspectRatio="xMidYMid meet">

<g transform="translate(0.000000,510.000000) scale(0.100000,-0.100000)"
fill="#93c9ff" stroke="none">
<path d="M4190 5080 c-423 -41 -816 -318 -1004 -707 -74 -154 -107 -271 -126
-456 -11 -103 -8 -176 16 -349 l7 -48 -59 0 c-85 0 -282 25 -440 55 -782 149
-1486 545 -2023 1138 l-125 139 -37 -74 c-144 -287 -170 -645 -70 -959 79
-247 232 -464 444 -626 26 -20 44 -39 40 -43 -12 -11 -162 7 -246 29 -110 30
-164 49 -239 87 -37 18 -69 30 -71 26 -6 -10 11 -188 24 -257 6 -33 24 -100
41 -150 102 -303 299 -545 578 -709 65 -38 240 -111 290 -121 88 -17 93 -28
18 -45 -112 -24 -278 -33 -386 -21 -58 7 -106 10 -108 8 -17 -17 101 -251 181
-358 77 -103 221 -243 313 -303 185 -120 470 -216 646 -216 l39 0 -19 -21
c-47 -52 -258 -186 -419 -266 -232 -116 -461 -188 -770 -243 -107 -19 -393
-30 -530 -21 -72 5 -131 8 -132 7 -5 -4 242 -144 333 -189 356 -177 779 -302
1194 -353 191 -23 673 -23 865 0 251 30 441 69 655 133 111 33 291 98 357 129
28 13 54 24 58 24 3 0 67 31 143 68 824 410 1454 1140 1778 2060 142 404 218
844 213 1246 l-1 131 38 34 c22 18 62 50 90 71 81 61 218 195 312 306 94 110
197 244 188 244 -3 0 -38 -13 -78 -29 -111 -43 -253 -88 -353 -111 -120 -28
-256 -50 -267 -44 -5 3 24 29 64 57 77 54 199 171 261 248 57 73 132 201 171
295 20 48 35 89 33 91 -2 2 -40 -17 -84 -41 -163 -90 -407 -184 -610 -235 -45
-12 -90 -21 -99 -21 -9 0 -46 28 -82 61 -270 249 -629 366 -1012 329z"/>
</g>
</svg>
