<?xml version="1.0" standalone="no"?>
<!DOCTYPE svg PUBLIC "-//W3C//DTD SVG 20010904//EN"
 "http://www.w3.org/TR/2001/REC-SVG-20010904/DTD/svg10.dtd">
<svg version="1.0" xmlns="http://www.w3.org/2000/svg"
 width="70pt" height="70pt" viewBox="0 0 500.000000 500.000000"
 preserveAspectRatio="xMidYMid meet">

<g transform="translate(0.000000,500.000000) scale(0.100000,-0.100000)"
fill="#145aa0" stroke="none">
<path d="M2370 4163 c-169 -12 -399 -71 -552 -142 -191 -88 -331 -184 -481
-330 -320 -312 -495 -718 -500 -1161 -2 -163 3 -192 35 -206 15 -7 309 -10
804 -10 754 1 783 2 803 20 l21 19 0 888 0 888 -26 20 c-15 12 -34 20 -43 19
-9 -1 -36 -3 -61 -5z m-322 -385 c28 -53 58 -78 93 -78 35 0 69 -24 69 -48 0
-8 -16 -33 -36 -55 -34 -37 -36 -42 -30 -88 12 -89 -15 -106 -105 -66 -34 15
-39 15 -75 -3 -78 -40 -111 -20 -100 61 7 48 5 53 -29 90 -19 21 -35 47 -35
57 0 27 29 48 75 55 41 6 57 20 87 76 24 43 63 43 86 -1z m-643 -744 c11 -18
25 -39 30 -48 6 -9 32 -20 59 -25 77 -14 88 -56 31 -111 -35 -34 -36 -37 -29
-87 10 -83 -19 -102 -96 -63 l-40 20 -40 -20 c-48 -24 -86 -26 -98 -3 -6 9 -8
42 -5 72 5 54 4 57 -31 90 -20 19 -36 41 -36 48 0 25 39 53 75 53 34 0 75 30
75 55 0 6 7 21 16 33 22 32 63 26 89 -14z m643 4 c28 -53 58 -78 93 -78 36 0
69 -24 69 -50 0 -9 -16 -34 -36 -54 -35 -37 -36 -39 -30 -93 4 -36 2 -60 -5
-69 -15 -18 -60 -18 -85 1 -24 18 -62 18 -94 0 -33 -19 -74 -19 -90 0 -9 10
-10 31 -6 66 7 48 5 53 -29 90 -19 21 -35 47 -35 56 0 28 31 53 67 53 37 0 66
24 95 78 12 23 24 32 43 32 19 0 31 -9 43 -32z"/>
<path d="M2890 4090 c-18 -18 -20 -33 -20 -133 0 -169 -21 -157 275 -157 l245
0 16 25 c35 53 0 87 -176 175 -76 38 -272 110 -300 110 -11 0 -29 -9 -40 -20z"/>
<path d="M2896 3409 c-26 -20 -26 -20 -26 -168 0 -137 2 -149 21 -167 19 -17
48 -18 552 -19 293 -1 543 2 557 7 57 21 53 61 -16 198 -31 61 -69 124 -84
140 l-28 30 -475 0 c-465 0 -475 0 -501 -21z"/>
<path d="M2896 2669 l-26 -20 0 -149 c0 -145 1 -149 24 -167 23 -18 51 -19
622 -17 330 1 607 4 616 8 23 10 28 26 35 126 8 116 -3 195 -30 220 -20 19
-38 20 -618 20 -588 0 -597 0 -623 -21z"/>
<path d="M980 1930 c-11 -11 -20 -33 -20 -50 0 -36 102 -239 140 -280 l28 -30
1360 0 c826 0 1370 4 1385 9 27 10 119 162 156 257 23 59 13 93 -29 105 -14 4
-694 7 -1513 8 -1473 1 -1487 1 -1507 -19z"/>
<path d="M1685 1202 c-73 -3 -105 -21 -105 -61 0 -41 126 -119 308 -191 465
-184 1006 -146 1436 102 101 58 115 82 77 129 l-19 24 -814 0 c-447 0 -844 -1
-883 -3z"/>
<path d="M105 1070 c-30 -8 -30 -8 8 -9 23 -1 36 3 32 9 -3 6 -7 9 -8 9 -1 -1
-15 -5 -32 -9z"/>
<path d="M111 1033 c-6 -10 -11 -12 -11 -5 0 6 -5 12 -11 12 -8 0 -8 -5 1 -15
18 -21 62 -20 58 2 -4 24 -25 27 -37 6z m29 -3 c0 -5 -4 -10 -10 -10 -5 0 -10
5 -10 10 0 6 5 10 10 10 6 0 10 -4 10 -10z"/>
<path d="M83 956 c-1 -23 1 -33 4 -23 3 10 10 16 16 14 39 -16 47 -16 19 0
-36 20 -33 33 6 33 33 0 23 9 -15 14 -29 3 -30 2 -30 -38z"/>
<path d="M80 893 c0 -15 2 -16 10 -3 8 12 11 13 19 1 7 -11 9 -11 14 0 5 12 8
11 17 -1 10 -13 11 -13 7 0 -2 8 -18 16 -35 18 -25 3 -32 0 -32 -15z"/>
<path d="M110 860 l-35 -7 38 -2 c20 0 37 4 37 9 0 6 -1 9 -2 9 -2 -1 -19 -5
-38 -9z"/>
<path d="M100 830 l-24 -6 24 -17 c19 -13 26 -14 29 -5 2 7 8 16 13 19 15 10
-14 16 -42 9z"/>
<path d="M140 781 c0 -6 -12 -9 -26 -8 -15 1 -28 -4 -30 -11 -1 -7 0 -8 3 -2
7 15 24 12 45 -7 17 -15 18 -15 18 10 0 15 -2 27 -5 27 -3 0 -5 -4 -5 -9z"/>
<path d="M81 713 c0 -11 3 -13 6 -5 7 17 23 15 45 -5 17 -15 18 -15 18 8 0 17
-3 20 -9 10 -6 -9 -11 -10 -15 -2 -12 18 -46 13 -45 -6z"/>
<path d="M96 675 c-3 -8 3 -19 14 -25 25 -13 35 4 14 24 -19 20 -20 20 -28 1z"/>
<path d="M108 613 c12 -2 32 -2 45 0 12 2 2 4 -23 4 -25 0 -35 -2 -22 -4z"/>
<path d="M131 566 c-7 -8 -25 -17 -39 -19 -17 -2 -10 -5 18 -5 29 -1 40 1 31
7 -11 7 -11 9 0 13 8 3 11 8 8 12 -3 4 -12 0 -18 -8z"/>
<path d="M101 523 c-1 -6 3 -15 9 -18 6 -4 5 -13 -3 -26 -10 -16 -9 -21 3 -29
23 -14 48 14 30 34 -8 11 -9 16 -1 16 6 0 11 8 10 18 0 10 -3 12 -6 5 -2 -7
-11 -13 -18 -13 -7 0 -16 6 -18 13 -4 9 -6 9 -6 0z m39 -53 c0 -5 -7 -10 -16
-10 -8 0 -12 5 -9 10 3 6 10 10 16 10 5 0 9 -4 9 -10z"/>
<path d="M94 431 c-2 -2 -1 -7 1 -11 5 -9 55 -1 55 9 0 6 -49 9 -56 2z"/>
<path d="M80 388 c0 -11 8 -18 20 -18 11 0 20 5 20 10 0 17 18 11 23 -7 4 -14
5 -12 6 5 1 15 -5 22 -18 22 -11 0 -22 -6 -24 -12 -4 -10 -8 -9 -16 2 -9 13
-11 13 -11 -2z"/>
<path d="M111 330 c-11 -6 -12 -12 -4 -22 13 -15 -1 -41 -27 -51 -8 -3 4 -6
28 -6 43 -1 54 13 30 37 -9 9 -9 12 0 12 7 0 12 8 12 18 0 14 -2 14 -9 3 -7
-11 -10 -11 -12 2 -3 12 -8 14 -18 7z m24 -60 c3 -5 -1 -10 -9 -10 -9 0 -16 5
-16 10 0 6 4 10 9 10 6 0 13 -4 16 -10z"/>
<path d="M107 233 c-11 -10 -8 -33 4 -33 5 0 8 4 4 9 -6 11 13 26 22 17 11
-11 -20 -36 -44 -36 l-24 0 27 -25 c24 -23 29 -24 42 -11 12 11 13 18 4 29 -8
10 -8 17 -1 24 6 6 8 16 5 22 -8 12 -29 15 -39 4z m33 -63 c0 -5 -7 -10 -15
-10 -8 0 -15 5 -15 10 0 6 7 10 15 10 8 0 15 -4 15 -10z"/>
<path d="M130 132 c-17 -8 -20 -33 -5 -44 18 -13 28 -8 15 7 -10 12 -10 18 0
30 14 16 13 17 -10 7z"/>
<path d="M80 110 c0 -5 5 -10 10 -10 6 0 10 5 10 10 0 6 -4 10 -10 10 -5 0
-10 -4 -10 -10z"/>
</g>
</svg>
